<?xml version="1.0" encoding="UTF-8" standalone="no"?>
<svg
   xmlns:dc="http://purl.org/dc/elements/1.1/"
   xmlns:cc="http://creativecommons.org/ns#"
   xmlns:rdf="http://www.w3.org/1999/02/22-rdf-syntax-ns#"
   xmlns:svg="http://www.w3.org/2000/svg"
   xmlns="http://www.w3.org/2000/svg"
   xmlns:sodipodi="http://sodipodi.sourceforge.net/DTD/sodipodi-0.dtd"
   xmlns:inkscape="http://www.inkscape.org/namespaces/inkscape"
   enable-background="new 0 0 24 24"
   height="24px"
   id="Layer_1"
   version="1.1"
   viewBox="0 0 24 24"
   width="24px"
   xml:space="preserve"
   inkscape:version="0.48.4 r9939"
   sodipodi:docname="hamz.svg"><metadata
     id="metadata13"><rdf:RDF><cc:Work
         rdf:about=""><dc:format>image/svg+xml</dc:format><dc:type
           rdf:resource="http://purl.org/dc/dcmitype/StillImage" /><dc:title></dc:title></cc:Work></rdf:RDF></metadata><defs
     id="defs11" /><sodipodi:namedview
     pagecolor="#ffffff"
     bordercolor="#666666"
     borderopacity="1"
     objecttolerance="10"
     gridtolerance="10"
     guidetolerance="10"
     inkscape:pageopacity="0"
     inkscape:pageshadow="2"
     inkscape:window-width="1920"
     inkscape:window-height="1176"
     id="namedview9"
     showgrid="false"
     inkscape:zoom="9.8333333"
     inkscape:cx="-7.1054274e-15"
     inkscape:cy="12"
     inkscape:window-x="0"
     inkscape:window-y="24"
     inkscape:window-maximized="1"
     inkscape:current-layer="layer1" /><g
     id="g3"><g
       id="g5"><path
         d="M23.244,17.009H0.75c-0.413,0-0.75,0.36-0.75,0.801v3.421C0,21.654,0.337,22,0.75,22h22.494c0.414,0,0.75-0.346,0.75-0.77    V17.81C23.994,17.369,23.658,17.009,23.244,17.009z M23.244,9.009H0.75C0.337,9.009,0,9.369,0,9.81v3.421    c0,0.424,0.337,0.769,0.75,0.769h22.494c0.414,0,0.75-0.345,0.75-0.769V9.81C23.994,9.369,23.658,9.009,23.244,9.009z     M23.244,1.009H0.75C0.337,1.009,0,1.369,0,1.81V5.23c0,0.423,0.337,0.769,0.75,0.769h22.494c0.414,0,0.75-0.346,0.75-0.769V1.81    C23.994,1.369,23.658,1.009,23.244,1.009z"
         id="path7" /></g></g><path
     style="fill:#ffffff"
     d="M 0.24560918,5.6636075 C 0.03878529,5.4006734 0.03041117,5.2991763 0.06026205,3.4171385 0.09089096,1.4860467 0.09639762,1.4421039 0.33160515,1.2518361 0.56471853,1.0632624 0.90346393,1.0576271 12.005719,1.0576271 l 11.434035,0 0.249614,0.2496148 c 0.247843,0.2478419 0.249615,0.2636064 0.249615,2.2195613 0,1.9276733 -0.0051,1.9746915 -0.235368,2.1910632 l -0.235368,0.2211167 -11.503013,0 -11.50301431,0 -0.21661051,-0.2753756 z"
     id="path2990"
     inkscape:connector-curvature="0" /><path
     style="fill:#ffffff"
     d="M 0.47952934,13.87116 C 0.08816572,13.712273 0.04067797,13.455881 0.04067797,11.501756 c 0,-1.7422202 0.01485561,-1.893213 0.21077085,-2.1422788 l 0.21077087,-0.2679518 11.51726531,0 11.517264,0 0.221118,0.2353679 c 0.211071,0.2246753 0.221116,0.3234929 0.221116,2.1751747 0,1.758349 -0.01818,1.962264 -0.194392,2.179886 l -0.194392,0.24008 -11.424252,0.01966 C 5.6636367,13.952816 0.60520084,13.92218 0.47952934,13.87116 z"
     id="path2992"
     inkscape:connector-curvature="0" /><path
     style="fill:#ffffff"
     d="M 0.25144882,21.637133 C 0.05612911,21.388824 0.04067797,21.236347 0.04067797,19.557172 c 0,-1.931927 0.0586054,-2.231438 0.47362625,-2.420534 0.17683738,-0.08057 3.46617998,-0.112909 11.48536078,-0.112909 11.952445,0 11.694945,-0.01002 11.876147,0.462183 0.03474,0.09054 0.06317,1.021741 0.06317,2.069331 0,1.776273 -0.01398,1.919719 -0.207352,2.127276 l -0.207351,0.222566 -11.531029,0 -11.53103131,0 -0.21077087,-0.267952 z"
     id="path2994"
     inkscape:connector-curvature="0" /><g
     inkscape:groupmode="layer"
     id="layer1"
     inkscape:label="background"
     style="opacity:1;display:inline"><path
       style="fill:#1a1a1a"
       d="M 0.33280476,5.6710313 C 0.1375032,5.4227456 0.1220339,5.2702239 0.1220339,3.5929059 0.1220339,2.5973103 0.1650523,1.669585 0.2176304,1.5312942 0.27804864,1.3723822 0.4183829,1.2594178 0.59898638,1.2243153 0.75615404,1.1937678 5.9415254,1.1385027 12.122034,1.101504 l 11.237288,-0.06727 0.253272,0.2730999 c 0.251201,0.2708663 0.253281,0.2887762 0.254238,2.1898801 9.15e-4,1.88925 -0.0026,1.9205503 -0.245575,2.1792748 l -0.246541,0.2624947 -11.41557,0 -11.41557038,0 -0.21077086,-0.2679518 z"
       id="path3000"
       inkscape:connector-curvature="0" /><path
       style="fill:#1a1a1a"
       d="M 0.37028437,13.727023 C 0.18865104,13.594377 0.17038386,13.425462 0.14161798,11.612569 0.11176792,9.7313474 0.12014689,9.6298278 0.32696511,9.3669011 l 0.21661051,-0.2753757 11.41557038,0 11.41557,0 0.246541,0.2624605 c 0.242887,0.2585721 0.24654,0.2908059 0.24654,2.1757751 0,1.738798 -0.01767,1.932839 -0.193728,2.12737 l -0.193728,0.214055 -11.456327,0 c -9.7268216,0 -11.48612758,-0.02176 -11.65372963,-0.144163 z"
       id="path3002"
       inkscape:connector-curvature="0" /><path
       style="fill:#1a1a1a"
       d="M 0.3268559,21.62957 C 0.1203486,21.367039 0.11161454,21.264167 0.14150877,19.446517 c 0.0274518,-1.669142 0.0540533,-1.930204 0.21285311,-2.088892 0.16866535,-0.168548 0.59235341,-0.184944 6.00000002,-0.232201 3.2001857,-0.02797 8.3682111,-0.02797 11.4845001,0 5.108044,0.04584 5.682642,0.06752 5.835175,0.220162 0.144889,0.144994 0.170959,0.445067 0.181477,2.088933 0.01075,1.67956 -0.01027,1.954067 -0.168028,2.195092 l -0.180311,0.275474 -11.481799,0 -11.48180038,0 L 0.3268559,21.62957 z"
       id="path3004"
       inkscape:connector-curvature="0" /><rect
       style="fill:#1a1a1a"
       id="rect3006"
       width="30.508474"
       height="26.033899"
       x="-3.2542372"
       y="-0.91525424" /><g
       id="g3060"
       transform="translate(0.003,0.39380586)"
       style="fill:#ffffff"><g
         id="g3062"
         style="fill:#ffffff"><path
           id="path3064"
           d="M 23.244,17.009 H 0.75 C 0.337,17.009 0,17.369 0,17.81 v 3.421 C 0,21.654 0.337,22 0.75,22 h 22.494 c 0.414,0 0.75,-0.346 0.75,-0.77 v -3.42 c 0,-0.441 -0.336,-0.801 -0.75,-0.801 z m 0,-8 H 0.75 C 0.337,9.009 0,9.369 0,9.81 v 3.421 C 0,13.655 0.337,14 0.75,14 h 22.494 c 0.414,0 0.75,-0.345 0.75,-0.769 V 9.81 c 0,-0.441 -0.336,-0.801 -0.75,-0.801 z m 0,-8 H 0.75 C 0.337,1.009 0,1.369 0,1.81 v 3.42 c 0,0.423 0.337,0.769 0.75,0.769 h 22.494 c 0.414,0 0.75,-0.346 0.75,-0.769 V 1.81 c 0,-0.441 -0.336,-0.801 -0.75,-0.801 z"
           inkscape:connector-curvature="0"
           style="fill:#ffffff" /></g></g></g></svg>