<?xml version="1.0" encoding="utf-8"?>
<!-- Generator: Adobe Illustrator 18.0.0, SVG Export Plug-In . SVG Version: 6.00 Build 0)  -->
<!DOCTYPE svg PUBLIC "-//W3C//DTD SVG 1.1//EN" "http://www.w3.org/Graphics/SVG/1.1/DTD/svg11.dtd">
<svg version="1.1" id="Layer_1" xmlns="http://www.w3.org/2000/svg" xmlns:xlink="http://www.w3.org/1999/xlink" x="0px" y="0px"
	 viewBox="0 0 350 35" enable-background="new 0 0 350 35" xml:space="preserve">
<rect x="7.1" y="1.5" fill="#E0FFF4" width="97.4" height="25.5"/>
<g>
	<path d="M1.9,12c0-0.2,0.1-0.3,0.3-0.3h2c0.2,0,0.3,0.1,0.3,0.3v21.1c0,0.2-0.1,0.3-0.3,0.3h-2c-0.2,0-0.3-0.1-0.3-0.3V12z"/>
	<path d="M10.4,12c0-0.2,0.1-0.3,0.3-0.3h2.4c0.3,0,0.4,0.1,0.5,0.3l4.9,16.3h0.1V12c0-0.2,0.1-0.3,0.3-0.3h1.7
		c0.2,0,0.3,0.1,0.3,0.3v21.1c0,0.2-0.1,0.3-0.3,0.3h-2.3c-0.3,0-0.4-0.1-0.5-0.3l-5-16.3h-0.2v16.3c0,0.2-0.1,0.3-0.3,0.3h-1.7
		c-0.2,0-0.3-0.1-0.3-0.3V12z"/>
	<path d="M38.7,33.5c-0.2,0-0.3-0.1-0.3-0.3L34.1,12c0-0.2,0-0.3,0.2-0.3h0.4c0.2,0,0.3,0.1,0.3,0.3l3.9,18.8h0.1L42.8,12
		c0-0.2,0.1-0.3,0.3-0.3h0.4c0.2,0,0.3,0.1,0.2,0.3l-4.3,21.1c0,0.2-0.1,0.3-0.3,0.3H38.7z"/>
	<path d="M49.2,12c0-0.2,0.1-0.3,0.3-0.3h0.3c0.2,0,0.3,0.1,0.3,0.3v21.1c0,0.2-0.1,0.3-0.3,0.3h-0.3c-0.2,0-0.3-0.1-0.3-0.3V12z"/>
	<path d="M56.9,12c0-0.2,0.1-0.3,0.3-0.3h3.5c2.5,0,3.9,1.2,4.5,3.1c0.4,1.2,0.5,2.6,0.5,7.8s-0.1,6.6-0.5,7.8c-0.6,2-2,3.1-4.5,3.1
		h-3.5c-0.2,0-0.3-0.1-0.3-0.3V12z M58,32.6h2.5c2,0,3.2-0.8,3.7-2.5c0.4-1.1,0.5-2.5,0.5-7.5c0-5-0.1-6.4-0.5-7.5
		c-0.5-1.7-1.7-2.5-3.7-2.5H58c-0.1,0-0.2,0.1-0.2,0.2v19.6C57.8,32.6,57.9,32.6,58,32.6z"/>
	<path d="M72.2,12c0-0.2,0.1-0.3,0.3-0.3h6.8c0.2,0,0.3,0.1,0.3,0.3v0.2c0,0.2-0.1,0.3-0.3,0.3h-6c-0.1,0-0.2,0.1-0.2,0.2v9
		c0,0.1,0.1,0.2,0.2,0.2h5.2c0.2,0,0.3,0.1,0.3,0.3v0.2c0,0.2-0.1,0.3-0.3,0.3h-5.2c-0.1,0-0.2,0.1-0.2,0.2v9.4
		c0,0.1,0.1,0.2,0.2,0.2h6c0.2,0,0.3,0.1,0.3,0.3v0.2c0,0.2-0.1,0.3-0.3,0.3h-6.8c-0.2,0-0.3-0.1-0.3-0.3V12z"/>
	<path d="M85.1,30.9c-0.3-1-0.4-1.8-0.4-8.3s0.1-7.4,0.4-8.3c0.6-1.9,2-2.8,4.1-2.8s3.5,0.9,4.1,2.8c0.3,1,0.4,1.8,0.4,8.3
		s-0.1,7.4-0.4,8.3c-0.6,1.9-2,2.8-4.1,2.8S85.8,32.8,85.1,30.9z M92.4,30.6c0.3-0.8,0.4-1.6,0.4-8s-0.1-7.2-0.4-8
		c-0.5-1.6-1.6-2.3-3.2-2.3S86.6,13,86,14.6c-0.3,0.8-0.4,1.6-0.4,8s0.1,7.2,0.4,8c0.5,1.6,1.6,2.3,3.2,2.3S91.9,32.2,92.4,30.6z"/>
</g>
</svg>
