<?xml version="1.0" encoding="utf-8"?>
<!-- Generator: Adobe Illustrator 18.0.0, SVG Export Plug-In . SVG Version: 6.00 Build 0)  -->
<!DOCTYPE svg PUBLIC "-//W3C//DTD SVG 1.1//EN" "http://www.w3.org/Graphics/SVG/1.1/DTD/svg11.dtd">
<svg version="1.1" id="Layer_1" xmlns="http://www.w3.org/2000/svg" xmlns:xlink="http://www.w3.org/1999/xlink" x="0px" y="0px"
	 viewBox="0 0 350 35" enable-background="new 0 0 350 35" xml:space="preserve">
<rect x="10.1" y="2.9" fill="#E0FFF4" width="166.5" height="25.5"/>
<g>
	<path d="M1.9,12.4c0-0.2,0.1-0.3,0.3-0.3h2c0.2,0,0.3,0.1,0.3,0.3v18.8c0,0.1,0.1,0.2,0.2,0.2h5.7c0.2,0,0.3,0.1,0.3,0.3v1.8
		c0,0.2-0.1,0.3-0.3,0.3H2.2c-0.2,0-0.3-0.1-0.3-0.3V12.4z"/>
	<path d="M18.7,12.4c0.1-0.2,0.2-0.3,0.4-0.3H21c0.2,0,0.3,0.1,0.4,0.3l4.6,21.1c0,0.2-0.1,0.3-0.3,0.3h-1.9c-0.2,0-0.3-0.1-0.4-0.3
		l-1-4.8h-4.8l-1,4.8c0,0.2-0.1,0.3-0.3,0.3h-1.9c-0.2,0-0.3-0.1-0.3-0.3L18.7,12.4z M22,26.5l-1.9-9.5H20l-2,9.5H22z"/>
	<path d="M32.2,33.9c-0.2,0-0.3-0.1-0.3-0.3V14.7c0-0.1-0.1-0.2-0.2-0.2h-3.6c-0.2,0-0.3-0.1-0.3-0.3v-1.8c0-0.2,0.1-0.3,0.3-0.3
		h10.1c0.2,0,0.3,0.1,0.3,0.3v1.8c0,0.2-0.1,0.3-0.3,0.3h-3.6c-0.1,0-0.2,0.1-0.2,0.2v18.8c0,0.2-0.1,0.3-0.3,0.3H32.2z"/>
	<path d="M43,12.4c0-0.2,0.1-0.3,0.3-0.3h8.2c0.2,0,0.3,0.1,0.3,0.3v1.8c0,0.2-0.1,0.3-0.3,0.3h-5.8c-0.1,0-0.2,0.1-0.2,0.2v6.8
		c0,0.1,0.1,0.2,0.2,0.2h5c0.2,0,0.3,0.1,0.3,0.3v1.8c0,0.2-0.1,0.3-0.3,0.3h-5c-0.1,0-0.2,0.1-0.2,0.2v7c0,0.1,0.1,0.2,0.2,0.2h5.8
		c0.2,0,0.3,0.1,0.3,0.3v1.8c0,0.2-0.1,0.3-0.3,0.3h-8.2c-0.2,0-0.3-0.1-0.3-0.3V12.4z"/>
	<path d="M61.2,34.1c-3.3,0-5-1.9-5.1-5.6c0-0.2,0.1-0.3,0.3-0.4l1.9-0.4c0.2,0,0.4,0.1,0.4,0.3c0.1,2.7,1,3.6,2.7,3.6
		c1.7,0,2.4-0.8,2.4-3.7c0-2.5-0.5-3.4-2.2-4.1l-1.3-0.5c-3-1.2-3.8-2.6-3.8-6c0-3.7,1.6-5.6,4.9-5.6s4.8,1.8,4.9,5.2
		c0,0.2-0.1,0.3-0.3,0.4L64,17.6c-0.2,0.1-0.4-0.1-0.4-0.3c-0.1-2.1-0.8-3.2-2.4-3.2c-1.6,0-2.4,1-2.4,3.2c0,2.2,0.5,3,2.3,3.7
		l1.3,0.5c2.8,1.1,3.8,2.6,3.8,6.2C66.2,32.1,64.9,34.1,61.2,34.1z"/>
	<path d="M74.4,33.9c-0.2,0-0.3-0.1-0.3-0.3V14.7c0-0.1-0.1-0.2-0.2-0.2h-3.6c-0.2,0-0.3-0.1-0.3-0.3v-1.8c0-0.2,0.1-0.3,0.3-0.3
		h10.1c0.2,0,0.3,0.1,0.3,0.3v1.8c0,0.2-0.1,0.3-0.3,0.3h-3.6c-0.1,0-0.2,0.1-0.2,0.2v18.8c0,0.2-0.1,0.3-0.3,0.3H74.4z"/>
	<path d="M93.9,12.4c0-0.2,0.1-0.3,0.3-0.3h0.3c0.2,0,0.3,0.1,0.3,0.3v20.4c0,0.1,0.1,0.2,0.2,0.2h6c0.2,0,0.3,0.1,0.3,0.3v0.2
		c0,0.2-0.1,0.3-0.3,0.3h-6.8c-0.2,0-0.3-0.1-0.3-0.3V12.4z"/>
	<path d="M106.6,31.3c-0.3-1-0.4-1.8-0.4-8.3c0-6.5,0.1-7.4,0.4-8.3c0.6-1.9,2-2.8,4.1-2.8s3.5,0.9,4.1,2.8c0.3,1,0.4,1.8,0.4,8.3
		c0,6.5-0.1,7.4-0.4,8.3c-0.6,1.9-2,2.8-4.1,2.8S107.2,33.2,106.6,31.3z M113.9,31c0.3-0.8,0.4-1.6,0.4-8c0-6.4-0.1-7.2-0.4-8
		c-0.5-1.6-1.6-2.3-3.2-2.3s-2.7,0.7-3.2,2.3c-0.3,0.8-0.4,1.6-0.4,8c0,6.4,0.1,7.2,0.4,8c0.5,1.6,1.6,2.3,3.2,2.3
		S113.3,32.5,113.9,31z"/>
	<path d="M120.4,31.3c-0.3-1-0.4-1.8-0.4-8.3c0-6.5,0.1-7.4,0.4-8.3c0.6-1.9,2-2.8,4.1-2.8s3.5,0.9,4.1,2.8c0.3,1,0.4,1.8,0.4,8.3
		c0,6.5-0.1,7.4-0.4,8.3c-0.6,1.9-2,2.8-4.1,2.8S121.1,33.2,120.4,31.3z M127.7,31c0.3-0.8,0.4-1.6,0.4-8c0-6.4-0.1-7.2-0.4-8
		c-0.5-1.6-1.6-2.3-3.2-2.3s-2.7,0.7-3.2,2.3c-0.3,0.8-0.4,1.6-0.4,8c0,6.4,0.1,7.2,0.4,8c0.5,1.6,1.6,2.3,3.2,2.3
		S127.2,32.5,127.7,31z"/>
	<path d="M135.5,12.4c0-0.2,0.1-0.3,0.3-0.3h0.3c0.2,0,0.3,0.1,0.3,0.3v12l6.1-12.1c0.1-0.2,0.2-0.3,0.4-0.3h0.4
		c0.2,0,0.3,0.1,0.2,0.3l-4.2,8.2l4.9,13c0.1,0.2,0,0.3-0.2,0.3h-0.4c-0.2,0-0.3-0.1-0.4-0.3l-4.4-12l-2.4,4.7v7.3
		c0,0.2-0.1,0.3-0.3,0.3h-0.3c-0.2,0-0.3-0.1-0.3-0.3V12.4z"/>
	<path d="M153.1,34.1c-2.8,0-4.2-1.8-4.4-5.4c0-0.2,0-0.3,0.2-0.4l0.3-0.1c0.2-0.1,0.4,0.1,0.4,0.3c0.3,3.6,1.4,4.7,3.5,4.7
		c2.2,0,3.3-1,3.3-5.2c0-2.9-0.7-4.1-2.5-4.8l-1.3-0.5c-2.8-1.1-3.6-2.4-3.6-5.7c0-3.6,1.4-5.2,4-5.2c2.6,0,4,1.5,4.1,4.9
		c0,0.2,0,0.3-0.2,0.4l-0.3,0.1c-0.2,0.1-0.4-0.1-0.4-0.3c-0.1-2.9-1.1-4.2-3.2-4.2c-2.2,0-3.1,1.3-3.1,4.4c0,2.8,0.7,3.9,2.5,4.6
		l1.3,0.5c2.7,1.1,3.5,2.4,3.5,5.8C157.4,32.6,156,34.1,153.1,34.1z"/>
</g>
</svg>
