<?xml version="1.0" encoding="utf-8"?>
<!-- Generator: Adobe Illustrator 18.0.0, SVG Export Plug-In . SVG Version: 6.00 Build 0)  -->
<!DOCTYPE svg PUBLIC "-//W3C//DTD SVG 1.1//EN" "http://www.w3.org/Graphics/SVG/1.1/DTD/svg11.dtd">
<svg version="1.1" id="Layer_1" xmlns="http://www.w3.org/2000/svg" xmlns:xlink="http://www.w3.org/1999/xlink" x="0px" y="0px"
	 viewBox="0 0 350 35" enable-background="new 0 0 350 35" xml:space="preserve">
<rect x="7.1" y="1" fill="#E0FFF4" width="264.4" height="25.5"/>
<g>
	<path d="M1.9,27.6V11.5c0-0.2,0.1-0.3,0.3-0.3h2c0.2,0,0.3,0.1,0.3,0.3V28c0,1.9,1,2.9,2.5,2.9c1.5,0,2.5-1,2.5-2.9V11.5
		c0-0.2,0.1-0.3,0.3-0.3h2c0.2,0,0.3,0.1,0.3,0.3v16.1c0,3.7-2,5.6-5.1,5.6C3.9,33.3,1.9,31.4,1.9,27.6z"/>
	<path d="M17.9,11.5c0-0.2,0.1-0.3,0.3-0.3h2.4c0.3,0,0.4,0.1,0.5,0.3L26,27.9h0.1V11.5c0-0.2,0.1-0.3,0.3-0.3h1.7
		c0.2,0,0.3,0.1,0.3,0.3v21.1c0,0.2-0.1,0.3-0.3,0.3h-2.3c-0.3,0-0.4-0.1-0.5-0.3l-5-16.3h-0.2v16.3c0,0.2-0.1,0.3-0.3,0.3h-1.7
		c-0.2,0-0.3-0.1-0.3-0.3V11.5z"/>
	<path d="M34.3,11.5c0-0.2,0.1-0.3,0.3-0.3h4.5c2.8,0,4.3,1.2,5,3.4c0.4,1.2,0.5,2.6,0.5,7.5s-0.1,6.3-0.5,7.5
		c-0.7,2.2-2.3,3.4-5,3.4h-4.5c-0.2,0-0.3-0.1-0.3-0.3V11.5z M37.1,30.6h1.8c1.5,0,2.3-0.6,2.8-1.9c0.3-0.9,0.4-2.1,0.4-6.6
		s-0.1-5.7-0.4-6.6c-0.4-1.3-1.3-1.9-2.8-1.9h-1.8c-0.1,0-0.2,0.1-0.2,0.2v16.6C36.9,30.5,37,30.6,37.1,30.6z"/>
	<path d="M50.2,11.5c0-0.2,0.1-0.3,0.3-0.3h8.2c0.2,0,0.3,0.1,0.3,0.3v1.8c0,0.2-0.1,0.3-0.3,0.3H53c-0.1,0-0.2,0.1-0.2,0.2v6.8
		c0,0.1,0.1,0.2,0.2,0.2h5c0.2,0,0.3,0.1,0.3,0.3v1.8c0,0.2-0.1,0.3-0.3,0.3h-5c-0.1,0-0.2,0.1-0.2,0.2v7c0,0.1,0.1,0.2,0.2,0.2h5.8
		c0.2,0,0.3,0.1,0.3,0.3v1.8c0,0.2-0.1,0.3-0.3,0.3h-8.2c-0.2,0-0.3-0.1-0.3-0.3V11.5z"/>
	<path d="M72.1,33c-0.2,0-0.3-0.1-0.4-0.2L69,23.7c-0.3,0-0.6,0-0.9,0h-1.3c-0.1,0-0.2,0.1-0.2,0.2v8.8c0,0.2-0.1,0.3-0.3,0.3h-2
		c-0.2,0-0.3-0.1-0.3-0.3V11.5c0-0.2,0.1-0.3,0.3-0.3h3.8c3.8,0,5.9,1.7,5.9,6.3c0,2.9-1,4.7-2.7,5.5l3,9.6c0.1,0.2,0,0.3-0.2,0.3
		H72.1z M71.5,17.5c0-2.9-1-3.9-3.3-3.9h-1.4c-0.1,0-0.2,0.1-0.2,0.2v7.4c0,0.1,0.1,0.2,0.2,0.2h1.4C70.4,21.4,71.5,20.5,71.5,17.5z
		"/>
	<path d="M91.3,33c-0.2,0-0.3-0.1-0.3-0.3V12.3c0-0.1-0.1-0.2-0.2-0.2h-4.1c-0.2,0-0.3-0.1-0.3-0.3v-0.2c0-0.2,0.1-0.3,0.3-0.3h9.4
		c0.2,0,0.3,0.1,0.3,0.3v0.2c0,0.2-0.1,0.3-0.3,0.3h-4.1c-0.1,0-0.2,0.1-0.2,0.2v20.4c0,0.2-0.1,0.3-0.3,0.3H91.3z"/>
	<path d="M101.5,11.5c0-0.2,0.1-0.3,0.3-0.3h0.3c0.2,0,0.3,0.1,0.3,0.3v9.6c0,0.1,0.1,0.2,0.2,0.2h6.6c0.1,0,0.2-0.1,0.2-0.2v-9.6
		c0-0.2,0.1-0.3,0.3-0.3h0.3c0.2,0,0.3,0.1,0.3,0.3v21.1c0,0.2-0.1,0.3-0.3,0.3h-0.3c-0.2,0-0.3-0.1-0.3-0.3V22.4
		c0-0.1-0.1-0.2-0.2-0.2h-6.6c-0.1,0-0.2,0.1-0.2,0.2v10.3c0,0.2-0.1,0.3-0.3,0.3h-0.3c-0.2,0-0.3-0.1-0.3-0.3V11.5z"/>
	<path d="M117.1,11.5c0-0.2,0.1-0.3,0.3-0.3h6.8c0.2,0,0.3,0.1,0.3,0.3v0.2c0,0.2-0.1,0.3-0.3,0.3h-6c-0.1,0-0.2,0.1-0.2,0.2v9
		c0,0.1,0.1,0.2,0.2,0.2h5.2c0.2,0,0.3,0.1,0.3,0.3V22c0,0.2-0.1,0.3-0.3,0.3h-5.2c-0.1,0-0.2,0.1-0.2,0.2v9.4
		c0,0.1,0.1,0.2,0.2,0.2h6c0.2,0,0.3,0.1,0.3,0.3v0.2c0,0.2-0.1,0.3-0.3,0.3h-6.8c-0.2,0-0.3-0.1-0.3-0.3V11.5z"/>
	<path d="M137.8,11.5c0-0.2,0.1-0.3,0.3-0.3h0.3c0.2,0,0.3,0.1,0.3,0.3v21.1c0,0.2-0.1,0.3-0.3,0.3h-0.3c-0.2,0-0.3-0.1-0.3-0.3
		V11.5z"/>
	<path d="M145.5,11.5c0-0.2,0.1-0.3,0.3-0.3h0.4c0.3,0,0.4,0.1,0.5,0.3l6.8,19.1h0.1V11.5c0-0.2,0.1-0.3,0.3-0.3h0.3
		c0.2,0,0.3,0.1,0.3,0.3v21.1c0,0.2-0.1,0.3-0.3,0.3h-0.4c-0.3,0-0.4-0.1-0.5-0.3l-6.8-19.2h-0.1v19.2c0,0.2-0.1,0.3-0.3,0.3h-0.3
		c-0.2,0-0.3-0.1-0.3-0.3V11.5z"/>
	<path d="M161.4,11.5c0-0.2,0.1-0.3,0.3-0.3h6.8c0.2,0,0.3,0.1,0.3,0.3v0.2c0,0.2-0.1,0.3-0.3,0.3h-6c-0.1,0-0.2,0.1-0.2,0.2v9.2
		c0,0.1,0.1,0.2,0.2,0.2h5.2c0.2,0,0.3,0.1,0.3,0.3v0.2c0,0.2-0.1,0.3-0.3,0.3h-5.2c-0.1,0-0.2,0.1-0.2,0.2v10
		c0,0.2-0.1,0.3-0.3,0.3h-0.3c-0.2,0-0.3-0.1-0.3-0.3V11.5z"/>
	<path d="M174.2,11.5c0-0.2,0.1-0.3,0.3-0.3h0.3c0.2,0,0.3,0.1,0.3,0.3v20.4c0,0.1,0.1,0.2,0.2,0.2h6c0.2,0,0.3,0.1,0.3,0.3v0.2
		c0,0.2-0.1,0.3-0.3,0.3h-6.8c-0.2,0-0.3-0.1-0.3-0.3V11.5z"/>
	<path d="M186.8,28.1V11.5c0-0.2,0.1-0.3,0.3-0.3h0.3c0.2,0,0.3,0.1,0.3,0.3v16.5c0,3,1.4,4.3,3.5,4.3s3.5-1.3,3.5-4.3V11.5
		c0-0.2,0.1-0.3,0.3-0.3h0.3c0.2,0,0.3,0.1,0.3,0.3v16.5c0,3.5-1.8,5.2-4.4,5.2S186.8,31.5,186.8,28.1z"/>
	<path d="M202.4,11.5c0-0.2,0.1-0.3,0.3-0.3h6.8c0.2,0,0.3,0.1,0.3,0.3v0.2c0,0.2-0.1,0.3-0.3,0.3h-6c-0.1,0-0.2,0.1-0.2,0.2v9
		c0,0.1,0.1,0.2,0.2,0.2h5.2c0.2,0,0.3,0.1,0.3,0.3V22c0,0.2-0.1,0.3-0.3,0.3h-5.2c-0.1,0-0.2,0.1-0.2,0.2v9.4
		c0,0.1,0.1,0.2,0.2,0.2h6c0.2,0,0.3,0.1,0.3,0.3v0.2c0,0.2-0.1,0.3-0.3,0.3h-6.8c-0.2,0-0.3-0.1-0.3-0.3V11.5z"/>
	<path d="M215.3,11.5c0-0.2,0.1-0.3,0.3-0.3h0.4c0.3,0,0.4,0.1,0.5,0.3l6.8,19.1h0.1V11.5c0-0.2,0.1-0.3,0.3-0.3h0.3
		c0.2,0,0.3,0.1,0.3,0.3v21.1c0,0.2-0.1,0.3-0.3,0.3h-0.4c-0.3,0-0.4-0.1-0.5-0.3l-6.8-19.2h-0.1v19.2c0,0.2-0.1,0.3-0.3,0.3h-0.3
		c-0.2,0-0.3-0.1-0.3-0.3V11.5z"/>
	<path d="M230.9,22.1c0-6.5,0.1-7.4,0.4-8.3c0.6-1.9,2-2.8,4-2.8c2.3,0,3.8,1.6,4.1,4.1c0,0.2,0,0.4-0.2,0.4l-0.3,0.1
		c-0.2,0.1-0.4,0-0.4-0.2c-0.3-2.1-1.4-3.5-3.3-3.5c-1.5,0-2.6,0.7-3.1,2.3c-0.3,0.8-0.4,1.6-0.4,8s0.1,7.2,0.4,8
		c0.5,1.6,1.5,2.3,3.1,2.3c1.9,0,3-1.3,3.3-3.5c0-0.2,0.2-0.3,0.4-0.2l0.3,0.1c0.2,0.1,0.2,0.2,0.2,0.4c-0.4,2.5-1.8,4.1-4.1,4.1
		c-2,0-3.4-0.9-4-2.8C231,29.5,230.9,28.6,230.9,22.1z"/>
	<path d="M245,11.5c0-0.2,0.1-0.3,0.3-0.3h6.8c0.2,0,0.3,0.1,0.3,0.3v0.2c0,0.2-0.1,0.3-0.3,0.3h-6c-0.1,0-0.2,0.1-0.2,0.2v9
		c0,0.1,0.1,0.2,0.2,0.2h5.2c0.2,0,0.3,0.1,0.3,0.3V22c0,0.2-0.1,0.3-0.3,0.3h-5.2c-0.1,0-0.2,0.1-0.2,0.2v9.4
		c0,0.1,0.1,0.2,0.2,0.2h6c0.2,0,0.3,0.1,0.3,0.3v0.2c0,0.2-0.1,0.3-0.3,0.3h-6.8c-0.2,0-0.3-0.1-0.3-0.3V11.5z"/>
</g>
</svg>
