<?xml version="1.0" encoding="utf-8"?>
<!-- Generator: Adobe Illustrator 18.0.0, SVG Export Plug-In . SVG Version: 6.00 Build 0)  -->
<!DOCTYPE svg PUBLIC "-//W3C//DTD SVG 1.1//EN" "http://www.w3.org/Graphics/SVG/1.1/DTD/svg11.dtd">
<svg version="1.1" id="Layer_1" xmlns="http://www.w3.org/2000/svg" xmlns:xlink="http://www.w3.org/1999/xlink" x="0px" y="0px"
	 viewBox="0 0 350 35" enable-background="new 0 0 350 35" xml:space="preserve">
<rect x="12.1" y="1" fill="#E0FFF4" width="259.4" height="25.5"/>
<g>
	<path d="M6.3,33.3c-3.3,0-5-1.9-5.1-5.6c0-0.2,0.1-0.3,0.3-0.4L3.3,27c0.2,0,0.4,0.1,0.4,0.3c0.1,2.7,1,3.6,2.7,3.6
		c1.7,0,2.4-0.8,2.4-3.7c0-2.5-0.5-3.4-2.2-4.1l-1.3-0.5c-3-1.2-3.8-2.6-3.8-6c0-3.7,1.6-5.6,4.9-5.6s4.8,1.8,4.9,5.2
		c0,0.2-0.1,0.3-0.3,0.4l-1.8,0.3c-0.2,0.1-0.4-0.1-0.4-0.3c-0.1-2.1-0.8-3.2-2.4-3.2c-1.6,0-2.4,1-2.4,3.2c0,2.2,0.5,3,2.3,3.7
		l1.3,0.5c2.8,1.1,3.8,2.6,3.8,6.2C11.3,31.2,10,33.3,6.3,33.3z"/>
	<path d="M16.5,11.5c0-0.2,0.1-0.3,0.3-0.3h2c0.2,0,0.3,0.1,0.3,0.3v8.9c0,0.1,0.1,0.2,0.2,0.2H24c0.1,0,0.2-0.1,0.2-0.2v-8.9
		c0-0.2,0.1-0.3,0.3-0.3h2c0.2,0,0.3,0.1,0.3,0.3v21.1c0,0.2-0.1,0.3-0.3,0.3h-2c-0.2,0-0.3-0.1-0.3-0.3v-9.4c0-0.1-0.1-0.2-0.2-0.2
		h-4.7c-0.1,0-0.2,0.1-0.2,0.2v9.4c0,0.2-0.1,0.3-0.3,0.3h-2c-0.2,0-0.3-0.1-0.3-0.3V11.5z"/>
	<path d="M32.7,30c-0.3-1-0.4-1.8-0.4-7.9s0.1-7,0.4-7.9c0.7-2.1,2.3-3.2,4.8-3.2s4.1,1.2,4.8,3.2c0.3,1,0.4,1.8,0.4,7.9
		s-0.1,7-0.4,7.9c-0.6,2.1-2.3,3.2-4.8,3.2S33.4,32.1,32.7,30z M39.8,29.3c0.2-0.6,0.3-1.1,0.3-7.2c0-6.1-0.1-6.6-0.3-7.2
		c-0.3-1-1.2-1.5-2.3-1.5s-2,0.5-2.3,1.5c-0.2,0.6-0.3,1.1-0.3,7.2c0,6.1,0.1,6.6,0.3,7.2c0.3,1,1.1,1.5,2.3,1.5
		S39.5,30.3,39.8,29.3z"/>
	<path d="M48.5,33c-0.2,0-0.3-0.1-0.3-0.3V11.5c0-0.2,0.1-0.3,0.3-0.3h3.8c3.8,0,5.9,1.7,5.9,6.5c0,4.7-2.1,6.5-5.9,6.5H51
		c-0.1,0-0.2,0.1-0.2,0.2v8.2c0,0.2-0.1,0.3-0.3,0.3H48.5z M55.6,17.8c0-3.1-0.9-4.1-3.3-4.1H51c-0.1,0-0.2,0.1-0.2,0.2v7.9
		c0,0.1,0.1,0.2,0.2,0.2h1.3C54.7,21.9,55.6,20.9,55.6,17.8z"/>
	<path d="M74.4,33c-0.2,0-0.3-0.1-0.3-0.3V13.8c0-0.1-0.1-0.2-0.2-0.2h-3.6c-0.2,0-0.3-0.1-0.3-0.3v-1.8c0-0.2,0.1-0.3,0.3-0.3h10.1
		c0.2,0,0.3,0.1,0.3,0.3v1.8c0,0.2-0.1,0.3-0.3,0.3h-3.6c-0.1,0-0.2,0.1-0.2,0.2v18.8c0,0.2-0.1,0.3-0.3,0.3H74.4z"/>
	<path d="M85.2,11.5c0-0.2,0.1-0.3,0.3-0.3h2c0.2,0,0.3,0.1,0.3,0.3v8.9c0,0.1,0.1,0.2,0.2,0.2h4.7c0.1,0,0.2-0.1,0.2-0.2v-8.9
		c0-0.2,0.1-0.3,0.3-0.3h2c0.2,0,0.3,0.1,0.3,0.3v21.1c0,0.2-0.1,0.3-0.3,0.3h-2c-0.2,0-0.3-0.1-0.3-0.3v-9.4c0-0.1-0.1-0.2-0.2-0.2
		H88c-0.1,0-0.2,0.1-0.2,0.2v9.4c0,0.2-0.1,0.3-0.3,0.3h-2c-0.2,0-0.3-0.1-0.3-0.3V11.5z"/>
	<path d="M101.4,11.5c0-0.2,0.1-0.3,0.3-0.3h2c0.2,0,0.3,0.1,0.3,0.3v21.1c0,0.2-0.1,0.3-0.3,0.3h-2c-0.2,0-0.3-0.1-0.3-0.3V11.5z"
		/>
	<path d="M114.2,33.3c-3.3,0-5-1.9-5.1-5.6c0-0.2,0.1-0.3,0.3-0.4l1.9-0.4c0.2,0,0.4,0.1,0.4,0.3c0.1,2.7,1,3.6,2.7,3.6
		c1.7,0,2.4-0.8,2.4-3.7c0-2.5-0.5-3.4-2.2-4.1l-1.3-0.5c-3-1.2-3.8-2.6-3.8-6c0-3.7,1.6-5.6,4.9-5.6s4.8,1.8,4.9,5.2
		c0,0.2-0.1,0.3-0.3,0.4l-1.8,0.3c-0.2,0.1-0.4-0.1-0.4-0.3c-0.1-2.1-0.8-3.2-2.4-3.2c-1.6,0-2.4,1-2.4,3.2c0,2.2,0.5,3,2.3,3.7
		l1.3,0.5c2.8,1.1,3.8,2.6,3.8,6.2C119.3,31.2,117.9,33.3,114.2,33.3z"/>
	<path d="M133,11.5c0-0.2,0.1-0.3,0.3-0.3h0.3c0.2,0,0.3,0.1,0.3,0.3v21.1c0,0.2-0.1,0.3-0.3,0.3h-0.3c-0.2,0-0.3-0.1-0.3-0.3V11.5z
		"/>
	<path d="M140.7,11.5c0-0.2,0.1-0.3,0.3-0.3h0.4c0.3,0,0.4,0.1,0.5,0.3l6.8,19.1h0.1V11.5c0-0.2,0.1-0.3,0.3-0.3h0.3
		c0.2,0,0.3,0.1,0.3,0.3v21.1c0,0.2-0.1,0.3-0.3,0.3h-0.4c-0.3,0-0.4-0.1-0.5-0.3l-6.8-19.2h-0.1v19.2c0,0.2-0.1,0.3-0.3,0.3h-0.3
		c-0.2,0-0.3-0.1-0.3-0.3V11.5z"/>
	<path d="M160.1,33.2c-2.8,0-4.2-1.8-4.4-5.4c0-0.2,0-0.3,0.2-0.4l0.3-0.1c0.2-0.1,0.4,0.1,0.4,0.3c0.3,3.6,1.4,4.7,3.5,4.7
		c2.2,0,3.3-1,3.3-5.2c0-2.9-0.7-4.1-2.5-4.8l-1.3-0.5c-2.8-1.1-3.6-2.4-3.6-5.7c0-3.6,1.4-5.2,4-5.2c2.6,0,4,1.5,4.1,4.9
		c0,0.2,0,0.3-0.2,0.4l-0.3,0.1c-0.2,0.1-0.4-0.1-0.4-0.3c-0.1-2.9-1.1-4.2-3.2-4.2c-2.2,0-3.1,1.3-3.1,4.4c0,2.8,0.7,3.9,2.5,4.6
		l1.3,0.5c2.7,1.1,3.5,2.4,3.5,5.8C164.3,31.7,162.9,33.2,160.1,33.2z"/>
	<path d="M173.4,33c-0.2,0-0.3-0.1-0.3-0.3V12.3c0-0.1-0.1-0.2-0.2-0.2h-4.1c-0.2,0-0.3-0.1-0.3-0.3v-0.2c0-0.2,0.1-0.3,0.3-0.3h9.4
		c0.2,0,0.3,0.1,0.3,0.3v0.2c0,0.2-0.1,0.3-0.3,0.3h-4.1c-0.1,0-0.2,0.1-0.2,0.2v20.4c0,0.2-0.1,0.3-0.3,0.3H173.4z"/>
	<path d="M186.8,11.5c0.1-0.2,0.2-0.3,0.4-0.3h0.4c0.2,0,0.3,0.1,0.4,0.3l4.4,21.1c0,0.2-0.1,0.3-0.3,0.3h-0.3
		c-0.2,0-0.3-0.1-0.3-0.3l-1.2-5.6h-5.7l-1.2,5.6c0,0.2-0.1,0.3-0.3,0.3h-0.3c-0.2,0-0.4-0.1-0.3-0.3L186.8,11.5z M189.9,26.2
		l-2.6-12.5h-0.1l-2.7,12.5H189.9z"/>
	<path d="M197.4,22.1c0-6.5,0.1-7.4,0.4-8.3c0.6-1.9,2-2.8,4.1-2.8c2.7,0,4,1.7,4.4,4c0,0.2,0,0.4-0.2,0.4l-0.3,0.1
		c-0.2,0.1-0.4,0-0.4-0.2c-0.4-2-1.4-3.4-3.5-3.4c-1.6,0-2.7,0.7-3.2,2.3c-0.3,0.8-0.4,1.6-0.4,8s0.1,7.2,0.4,8
		c0.5,1.6,1.6,2.3,3.2,2.3c1.6,0,2.7-0.7,3.2-2.3c0.3-0.8,0.4-1.6,0.4-7c0-0.1-0.1-0.2-0.2-0.2h-3c-0.2,0-0.3-0.1-0.3-0.3v-0.2
		c0-0.2,0.1-0.3,0.3-0.3h3.8c0.2,0,0.3,0.1,0.3,0.3v0.8c0,5.5-0.1,6.3-0.4,7.3c-0.6,1.9-2,2.8-4.1,2.8s-3.5-0.9-4.1-2.8
		C197.5,29.5,197.4,28.6,197.4,22.1z"/>
	<path d="M220.5,33c-0.2,0-0.3-0.1-0.4-0.2l-2.9-10c-0.5,0.1-1.1,0.1-1.7,0.1h-1.7c-0.1,0-0.2,0.1-0.2,0.2v9.6
		c0,0.2-0.1,0.3-0.3,0.3h-0.3c-0.2,0-0.3-0.1-0.3-0.3V11.5c0-0.2,0.1-0.3,0.3-0.3h2.6c3.8,0,5.2,1.6,5.2,5.8c0,3.1-0.9,4.8-2.8,5.4
		l2.9,10.2c0.1,0.2,0,0.3-0.2,0.3H220.5z M220,17.1c0-3.7-1.2-5-4.2-5h-2c-0.1,0-0.2,0.1-0.2,0.2v9.5c0,0.1,0.1,0.2,0.2,0.2h2
		C218.7,22,220,21,220,17.1z"/>
	<path d="M230.4,11.5c0.1-0.2,0.2-0.3,0.4-0.3h0.4c0.2,0,0.3,0.1,0.4,0.3l4.4,21.1c0,0.2-0.1,0.3-0.3,0.3h-0.3
		c-0.2,0-0.3-0.1-0.3-0.3l-1.2-5.6H228l-1.2,5.6c0,0.2-0.1,0.3-0.3,0.3h-0.3c-0.2,0-0.4-0.1-0.3-0.3L230.4,11.5z M233.5,26.2
		l-2.6-12.5h-0.1l-2.7,12.5H233.5z"/>
	<path d="M241.3,11.5c0-0.2,0.1-0.3,0.3-0.3h0.4c0.2,0,0.3,0.1,0.4,0.3l4.6,15.7h0.1l4.6-15.7c0.1-0.2,0.2-0.3,0.4-0.3h0.4
		c0.2,0,0.3,0.1,0.3,0.3v21.1c0,0.2-0.1,0.3-0.3,0.3h-0.3c-0.2,0-0.3-0.1-0.3-0.3V14.5h-0.1l-4.3,14.3c-0.1,0.2-0.2,0.3-0.4,0.3
		h-0.3c-0.2,0-0.3-0.1-0.4-0.3l-4.3-14.3h-0.1v18.1c0,0.2-0.1,0.3-0.3,0.3h-0.3c-0.2,0-0.3-0.1-0.3-0.3V11.5z"/>
</g>
</svg>
