<?xml version="1.0" encoding="utf-8"?>
<!-- Generator: Adobe Illustrator 18.0.0, SVG Export Plug-In . SVG Version: 6.00 Build 0)  -->
<!DOCTYPE svg PUBLIC "-//W3C//DTD SVG 1.1//EN" "http://www.w3.org/Graphics/SVG/1.1/DTD/svg11.dtd">
<svg version="1.1" id="Layer_1" xmlns="http://www.w3.org/2000/svg" xmlns:xlink="http://www.w3.org/1999/xlink" x="0px" y="0px"
	 viewBox="0 0 350 35" enable-background="new 0 0 350 35" xml:space="preserve">
<rect x="7.1" y="1.5" fill="#E0FFF4" width="161.4" height="25.5"/>
<g>
	<path d="M1.9,12c0-0.2,0.1-0.3,0.3-0.3h2c0.3,0,0.4,0.1,0.4,0.3l4,13.3h0.1L12.6,12c0.1-0.2,0.2-0.3,0.5-0.3h2
		c0.2,0,0.3,0.1,0.3,0.3v21.1c0,0.2-0.1,0.3-0.3,0.3h-1.7c-0.2,0-0.3-0.1-0.3-0.3V18.1h-0.2L9.6,29.3c-0.1,0.2-0.2,0.3-0.4,0.3H8.1
		c-0.2,0-0.3-0.1-0.4-0.3L4.4,18.1H4.3v15.1c0,0.2-0.1,0.3-0.3,0.3H2.2c-0.2,0-0.3-0.1-0.3-0.3V12z"/>
	<path d="M24.4,33.5c-0.2,0-0.3-0.1-0.3-0.3v-8.7L19.9,12c-0.1-0.2,0-0.3,0.2-0.3h2c0.2,0,0.3,0.1,0.4,0.3l2.8,9.1h0.1l2.8-9.1
		c0.1-0.2,0.2-0.3,0.4-0.3h2c0.2,0,0.3,0.1,0.2,0.3l-4.2,12.4v8.7c0,0.2-0.1,0.3-0.3,0.3H24.4z"/>
	<path d="M43.9,12c0-0.2,0.1-0.3,0.3-0.3h0.3c0.2,0,0.3,0.1,0.3,0.3v21.1c0,0.2-0.1,0.3-0.3,0.3h-0.3c-0.2,0-0.3-0.1-0.3-0.3V12z"/>
	<path d="M51.6,12c0-0.2,0.1-0.3,0.3-0.3h0.4c0.3,0,0.4,0.1,0.5,0.3l6.8,19.1h0.1V12c0-0.2,0.1-0.3,0.3-0.3h0.3
		c0.2,0,0.3,0.1,0.3,0.3v21.1c0,0.2-0.1,0.3-0.3,0.3H60c-0.3,0-0.4-0.1-0.5-0.3L52.6,14h-0.1v19.2c0,0.2-0.1,0.3-0.3,0.3h-0.3
		c-0.2,0-0.3-0.1-0.3-0.3V12z"/>
	<path d="M67.5,12c0-0.2,0.1-0.3,0.3-0.3h6.8c0.2,0,0.3,0.1,0.3,0.3v0.2c0,0.2-0.1,0.3-0.3,0.3h-6c-0.1,0-0.2,0.1-0.2,0.2v9.2
		c0,0.1,0.1,0.2,0.2,0.2h5.2c0.2,0,0.3,0.1,0.3,0.3v0.2c0,0.2-0.1,0.3-0.3,0.3h-5.2c-0.1,0-0.2,0.1-0.2,0.2v10
		c0,0.2-0.1,0.3-0.3,0.3h-0.3c-0.2,0-0.3-0.1-0.3-0.3V12z"/>
	<path d="M80.3,12c0-0.2,0.1-0.3,0.3-0.3h0.3c0.2,0,0.3,0.1,0.3,0.3v20.4c0,0.1,0.1,0.2,0.2,0.2h6c0.2,0,0.3,0.1,0.3,0.3v0.2
		c0,0.2-0.1,0.3-0.3,0.3h-6.8c-0.2,0-0.3-0.1-0.3-0.3V12z"/>
	<path d="M93,28.6V12c0-0.2,0.1-0.3,0.3-0.3h0.3c0.2,0,0.3,0.1,0.3,0.3v16.5c0,3,1.4,4.3,3.5,4.3s3.5-1.3,3.5-4.3V12
		c0-0.2,0.1-0.3,0.3-0.3h0.3c0.2,0,0.3,0.1,0.3,0.3v16.5c0,3.5-1.8,5.2-4.4,5.2S93,32,93,28.6z"/>
	<path d="M108.5,12c0-0.2,0.1-0.3,0.3-0.3h6.8c0.2,0,0.3,0.1,0.3,0.3v0.2c0,0.2-0.1,0.3-0.3,0.3h-6c-0.1,0-0.2,0.1-0.2,0.2v9
		c0,0.1,0.1,0.2,0.2,0.2h5.2c0.2,0,0.3,0.1,0.3,0.3v0.2c0,0.2-0.1,0.3-0.3,0.3h-5.2c-0.1,0-0.2,0.1-0.2,0.2v9.4
		c0,0.1,0.1,0.2,0.2,0.2h6c0.2,0,0.3,0.1,0.3,0.3v0.2c0,0.2-0.1,0.3-0.3,0.3h-6.8c-0.2,0-0.3-0.1-0.3-0.3V12z"/>
	<path d="M121.4,12c0-0.2,0.1-0.3,0.3-0.3h0.4c0.3,0,0.4,0.1,0.5,0.3l6.8,19.1h0.1V12c0-0.2,0.1-0.3,0.3-0.3h0.3
		c0.2,0,0.3,0.1,0.3,0.3v21.1c0,0.2-0.1,0.3-0.3,0.3h-0.4c-0.3,0-0.4-0.1-0.5-0.3L122.4,14h-0.1v19.2c0,0.2-0.1,0.3-0.3,0.3h-0.3
		c-0.2,0-0.3-0.1-0.3-0.3V12z"/>
	<path d="M137,22.6c0-6.5,0.1-7.4,0.4-8.3c0.6-1.9,2-2.8,4-2.8c2.3,0,3.8,1.6,4.1,4.1c0,0.2,0,0.4-0.2,0.4l-0.3,0.1
		c-0.2,0.1-0.4,0-0.4-0.2c-0.3-2.1-1.4-3.5-3.3-3.5c-1.5,0-2.6,0.7-3.1,2.3c-0.3,0.8-0.4,1.6-0.4,8s0.1,7.2,0.4,8
		c0.5,1.6,1.5,2.3,3.1,2.3c1.9,0,3-1.3,3.3-3.5c0-0.2,0.2-0.3,0.4-0.2l0.3,0.1c0.2,0.1,0.2,0.2,0.2,0.4c-0.4,2.5-1.8,4.1-4.1,4.1
		c-2,0-3.4-0.9-4-2.8C137.1,30,137,29.1,137,22.6z"/>
	<path d="M151.1,12c0-0.2,0.1-0.3,0.3-0.3h6.8c0.2,0,0.3,0.1,0.3,0.3v0.2c0,0.2-0.1,0.3-0.3,0.3h-6c-0.1,0-0.2,0.1-0.2,0.2v9
		c0,0.1,0.1,0.2,0.2,0.2h5.2c0.2,0,0.3,0.1,0.3,0.3v0.2c0,0.2-0.1,0.3-0.3,0.3h-5.2c-0.1,0-0.2,0.1-0.2,0.2v9.4
		c0,0.1,0.1,0.2,0.2,0.2h6c0.2,0,0.3,0.1,0.3,0.3v0.2c0,0.2-0.1,0.3-0.3,0.3h-6.8c-0.2,0-0.3-0.1-0.3-0.3V12z"/>
</g>
</svg>
